<mxfile host="app.diagrams.net" modified="2023-05-02T18:20:25.793Z" agent="Mozilla/5.0 (Windows NT 10.0; Win64; x64) AppleWebKit/537.36 (KHTML, like Gecko) Chrome/111.0.0.0 Safari/537.36 OPR/97.0.0.0" etag="tv8AKT-KQSVgR2fJxe1T" version="21.2.3" type="github">
  <diagram name="Page-1" id="SdLfol6Z8dMwUzgZrJY0">
    <mxGraphModel dx="585" dy="331" grid="1" gridSize="10" guides="1" tooltips="1" connect="1" arrows="1" fold="1" page="1" pageScale="1" pageWidth="850" pageHeight="1100" math="0" shadow="0">
      <root>
        <mxCell id="0" />
        <mxCell id="1" parent="0" />
        <mxCell id="r5_HSoaolSMguyaTFb34-1" value="" style="shape=image;imageAspect=0;aspect=fixed;verticalLabelPosition=bottom;verticalAlign=top;sketch=1;hachureGap=4;jiggle=2;curveFitting=1;fontFamily=Architects Daughter;fontSource=https%3A%2F%2Ffonts.googleapis.com%2Fcss%3Ffamily%3DArchitects%2BDaughter;fontSize=20;image=https://raw.githubusercontent.com/realpotatobean/realpotatobean/main/wirefram%20app%20your%20angels%20garden.png;movable=0;resizable=0;rotatable=0;deletable=0;editable=0;locked=1;connectable=0;" parent="1" vertex="1">
          <mxGeometry x="200" y="30" width="1015.04" height="1140" as="geometry" />
        </mxCell>
        <mxCell id="XLNwENEWXN-acG2qOnhf-3" value="" style="whiteSpace=wrap;html=1;aspect=fixed;sketch=1;hachureGap=4;jiggle=2;curveFitting=1;fontFamily=Architects Daughter;fontSource=https%3A%2F%2Ffonts.googleapis.com%2Fcss%3Ffamily%3DArchitects%2BDaughter;fontSize=20;strokeColor=none;movable=0;resizable=0;rotatable=0;deletable=0;editable=0;locked=1;connectable=0;" vertex="1" parent="1">
          <mxGeometry x="382" y="502" width="10" height="10" as="geometry" />
        </mxCell>
        <mxCell id="XLNwENEWXN-acG2qOnhf-13" value="" style="group" vertex="1" connectable="0" parent="1">
          <mxGeometry x="388" y="527" width="39.5" height="33" as="geometry" />
        </mxCell>
        <mxCell id="XLNwENEWXN-acG2qOnhf-2" value="" style="rounded=0;whiteSpace=wrap;html=1;sketch=1;hachureGap=4;jiggle=2;curveFitting=1;fontFamily=Architects Daughter;fontSource=https%3A%2F%2Ffonts.googleapis.com%2Fcss%3Ffamily%3DArchitects%2BDaughter;fontSize=20;" vertex="1" parent="XLNwENEWXN-acG2qOnhf-13">
          <mxGeometry width="32" height="33" as="geometry" />
        </mxCell>
        <mxCell id="XLNwENEWXN-acG2qOnhf-8" value="" style="endArrow=none;html=1;rounded=0;sketch=1;hachureGap=4;jiggle=2;curveFitting=1;fontFamily=Architects Daughter;fontSource=https%3A%2F%2Ffonts.googleapis.com%2Fcss%3Ffamily%3DArchitects%2BDaughter;fontSize=16;entryX=1;entryY=0;entryDx=0;entryDy=0;exitX=0;exitY=1;exitDx=0;exitDy=0;" edge="1" parent="XLNwENEWXN-acG2qOnhf-13" source="XLNwENEWXN-acG2qOnhf-2" target="XLNwENEWXN-acG2qOnhf-2">
          <mxGeometry width="50" height="50" relative="1" as="geometry">
            <mxPoint x="2" y="33" as="sourcePoint" />
            <mxPoint x="24" y="13" as="targetPoint" />
          </mxGeometry>
        </mxCell>
        <mxCell id="XLNwENEWXN-acG2qOnhf-9" value="" style="endArrow=none;html=1;rounded=0;sketch=1;hachureGap=4;jiggle=2;curveFitting=1;fontFamily=Architects Daughter;fontSource=https%3A%2F%2Ffonts.googleapis.com%2Fcss%3Ffamily%3DArchitects%2BDaughter;fontSize=16;entryX=1;entryY=1;entryDx=0;entryDy=0;exitX=0;exitY=0;exitDx=0;exitDy=0;" edge="1" parent="XLNwENEWXN-acG2qOnhf-13" source="XLNwENEWXN-acG2qOnhf-2" target="XLNwENEWXN-acG2qOnhf-2">
          <mxGeometry width="50" height="50" relative="1" as="geometry">
            <mxPoint x="10" y="43" as="sourcePoint" />
            <mxPoint x="42" y="10" as="targetPoint" />
          </mxGeometry>
        </mxCell>
        <mxCell id="XLNwENEWXN-acG2qOnhf-26" value="&lt;font style=&quot;font-size: 8px;&quot;&gt;English&lt;/font&gt;" style="rounded=0;whiteSpace=wrap;html=1;sketch=1;hachureGap=4;jiggle=2;curveFitting=1;fontFamily=Architects Daughter;fontSource=https%3A%2F%2Ffonts.googleapis.com%2Fcss%3Ffamily%3DArchitects%2BDaughter;fontSize=8;fontStyle=1" vertex="1" parent="XLNwENEWXN-acG2qOnhf-13">
          <mxGeometry x="-5.5" y="11.25" width="42" height="11.75" as="geometry" />
        </mxCell>
        <mxCell id="XLNwENEWXN-acG2qOnhf-28" value="" style="group" vertex="1" connectable="0" parent="1">
          <mxGeometry x="442" y="527" width="39.5" height="33" as="geometry" />
        </mxCell>
        <mxCell id="XLNwENEWXN-acG2qOnhf-29" value="" style="rounded=0;whiteSpace=wrap;html=1;sketch=1;hachureGap=4;jiggle=2;curveFitting=1;fontFamily=Architects Daughter;fontSource=https%3A%2F%2Ffonts.googleapis.com%2Fcss%3Ffamily%3DArchitects%2BDaughter;fontSize=20;" vertex="1" parent="XLNwENEWXN-acG2qOnhf-28">
          <mxGeometry width="32" height="33" as="geometry" />
        </mxCell>
        <mxCell id="XLNwENEWXN-acG2qOnhf-30" value="" style="endArrow=none;html=1;rounded=0;sketch=1;hachureGap=4;jiggle=2;curveFitting=1;fontFamily=Architects Daughter;fontSource=https%3A%2F%2Ffonts.googleapis.com%2Fcss%3Ffamily%3DArchitects%2BDaughter;fontSize=16;entryX=1;entryY=0;entryDx=0;entryDy=0;exitX=0;exitY=1;exitDx=0;exitDy=0;" edge="1" parent="XLNwENEWXN-acG2qOnhf-28" source="XLNwENEWXN-acG2qOnhf-29" target="XLNwENEWXN-acG2qOnhf-29">
          <mxGeometry width="50" height="50" relative="1" as="geometry">
            <mxPoint x="2" y="33" as="sourcePoint" />
            <mxPoint x="24" y="13" as="targetPoint" />
          </mxGeometry>
        </mxCell>
        <mxCell id="XLNwENEWXN-acG2qOnhf-31" value="" style="endArrow=none;html=1;rounded=0;sketch=1;hachureGap=4;jiggle=2;curveFitting=1;fontFamily=Architects Daughter;fontSource=https%3A%2F%2Ffonts.googleapis.com%2Fcss%3Ffamily%3DArchitects%2BDaughter;fontSize=16;entryX=1;entryY=1;entryDx=0;entryDy=0;exitX=0;exitY=0;exitDx=0;exitDy=0;" edge="1" parent="XLNwENEWXN-acG2qOnhf-28" source="XLNwENEWXN-acG2qOnhf-29" target="XLNwENEWXN-acG2qOnhf-29">
          <mxGeometry width="50" height="50" relative="1" as="geometry">
            <mxPoint x="10" y="43" as="sourcePoint" />
            <mxPoint x="42" y="10" as="targetPoint" />
          </mxGeometry>
        </mxCell>
        <mxCell id="XLNwENEWXN-acG2qOnhf-32" value="&lt;font style=&quot;font-size: 8px;&quot;&gt;French&lt;/font&gt;" style="rounded=0;whiteSpace=wrap;html=1;sketch=1;hachureGap=4;jiggle=2;curveFitting=1;fontFamily=Architects Daughter;fontSource=https%3A%2F%2Ffonts.googleapis.com%2Fcss%3Ffamily%3DArchitects%2BDaughter;fontSize=8;fontStyle=1" vertex="1" parent="XLNwENEWXN-acG2qOnhf-28">
          <mxGeometry x="-5.5" y="10.25" width="42" height="11.75" as="geometry" />
        </mxCell>
        <mxCell id="XLNwENEWXN-acG2qOnhf-33" value="" style="group" vertex="1" connectable="0" parent="1">
          <mxGeometry x="390" y="570" width="39.5" height="33" as="geometry" />
        </mxCell>
        <mxCell id="XLNwENEWXN-acG2qOnhf-34" value="" style="rounded=0;whiteSpace=wrap;html=1;sketch=1;hachureGap=4;jiggle=2;curveFitting=1;fontFamily=Architects Daughter;fontSource=https%3A%2F%2Ffonts.googleapis.com%2Fcss%3Ffamily%3DArchitects%2BDaughter;fontSize=20;" vertex="1" parent="XLNwENEWXN-acG2qOnhf-33">
          <mxGeometry width="32" height="33" as="geometry" />
        </mxCell>
        <mxCell id="XLNwENEWXN-acG2qOnhf-35" value="" style="endArrow=none;html=1;rounded=0;sketch=1;hachureGap=4;jiggle=2;curveFitting=1;fontFamily=Architects Daughter;fontSource=https%3A%2F%2Ffonts.googleapis.com%2Fcss%3Ffamily%3DArchitects%2BDaughter;fontSize=16;entryX=1;entryY=0;entryDx=0;entryDy=0;exitX=0;exitY=1;exitDx=0;exitDy=0;" edge="1" parent="XLNwENEWXN-acG2qOnhf-33" source="XLNwENEWXN-acG2qOnhf-34" target="XLNwENEWXN-acG2qOnhf-34">
          <mxGeometry width="50" height="50" relative="1" as="geometry">
            <mxPoint x="2" y="33" as="sourcePoint" />
            <mxPoint x="24" y="13" as="targetPoint" />
          </mxGeometry>
        </mxCell>
        <mxCell id="XLNwENEWXN-acG2qOnhf-36" value="" style="endArrow=none;html=1;rounded=0;sketch=1;hachureGap=4;jiggle=2;curveFitting=1;fontFamily=Architects Daughter;fontSource=https%3A%2F%2Ffonts.googleapis.com%2Fcss%3Ffamily%3DArchitects%2BDaughter;fontSize=16;entryX=1;entryY=1;entryDx=0;entryDy=0;exitX=0;exitY=0;exitDx=0;exitDy=0;" edge="1" parent="XLNwENEWXN-acG2qOnhf-33" source="XLNwENEWXN-acG2qOnhf-34" target="XLNwENEWXN-acG2qOnhf-34">
          <mxGeometry width="50" height="50" relative="1" as="geometry">
            <mxPoint x="10" y="43" as="sourcePoint" />
            <mxPoint x="42" y="10" as="targetPoint" />
          </mxGeometry>
        </mxCell>
        <mxCell id="XLNwENEWXN-acG2qOnhf-37" value="&lt;font style=&quot;font-size: 8px;&quot;&gt;Arabic&lt;br style=&quot;font-size: 8px;&quot;&gt;&lt;/font&gt;" style="rounded=0;whiteSpace=wrap;html=1;sketch=1;hachureGap=4;jiggle=2;curveFitting=1;fontFamily=Architects Daughter;fontSource=https%3A%2F%2Ffonts.googleapis.com%2Fcss%3Ffamily%3DArchitects%2BDaughter;fontSize=8;fontStyle=1" vertex="1" parent="XLNwENEWXN-acG2qOnhf-33">
          <mxGeometry x="-5.5" y="10.25" width="42" height="11.75" as="geometry" />
        </mxCell>
        <mxCell id="XLNwENEWXN-acG2qOnhf-38" value="" style="group;fontSize=13;" vertex="1" connectable="0" parent="1">
          <mxGeometry x="442" y="570" width="39.5" height="33" as="geometry" />
        </mxCell>
        <mxCell id="XLNwENEWXN-acG2qOnhf-39" value="" style="rounded=0;whiteSpace=wrap;html=1;sketch=1;hachureGap=4;jiggle=2;curveFitting=1;fontFamily=Architects Daughter;fontSource=https%3A%2F%2Ffonts.googleapis.com%2Fcss%3Ffamily%3DArchitects%2BDaughter;fontSize=20;" vertex="1" parent="XLNwENEWXN-acG2qOnhf-38">
          <mxGeometry width="32" height="33" as="geometry" />
        </mxCell>
        <mxCell id="XLNwENEWXN-acG2qOnhf-40" value="" style="endArrow=none;html=1;rounded=0;sketch=1;hachureGap=4;jiggle=2;curveFitting=1;fontFamily=Architects Daughter;fontSource=https%3A%2F%2Ffonts.googleapis.com%2Fcss%3Ffamily%3DArchitects%2BDaughter;fontSize=16;entryX=1;entryY=0;entryDx=0;entryDy=0;exitX=0;exitY=1;exitDx=0;exitDy=0;" edge="1" parent="XLNwENEWXN-acG2qOnhf-38" source="XLNwENEWXN-acG2qOnhf-39" target="XLNwENEWXN-acG2qOnhf-39">
          <mxGeometry width="50" height="50" relative="1" as="geometry">
            <mxPoint x="2" y="33" as="sourcePoint" />
            <mxPoint x="24" y="13" as="targetPoint" />
          </mxGeometry>
        </mxCell>
        <mxCell id="XLNwENEWXN-acG2qOnhf-41" value="" style="endArrow=none;html=1;rounded=0;sketch=1;hachureGap=4;jiggle=2;curveFitting=1;fontFamily=Architects Daughter;fontSource=https%3A%2F%2Ffonts.googleapis.com%2Fcss%3Ffamily%3DArchitects%2BDaughter;fontSize=16;entryX=1;entryY=1;entryDx=0;entryDy=0;exitX=0;exitY=0;exitDx=0;exitDy=0;" edge="1" parent="XLNwENEWXN-acG2qOnhf-38" source="XLNwENEWXN-acG2qOnhf-39" target="XLNwENEWXN-acG2qOnhf-39">
          <mxGeometry width="50" height="50" relative="1" as="geometry">
            <mxPoint x="10" y="43" as="sourcePoint" />
            <mxPoint x="42" y="10" as="targetPoint" />
          </mxGeometry>
        </mxCell>
        <mxCell id="XLNwENEWXN-acG2qOnhf-42" value="&lt;font style=&quot;font-size: 8px;&quot;&gt;Quran&lt;/font&gt;" style="rounded=0;whiteSpace=wrap;html=1;sketch=1;hachureGap=4;jiggle=2;curveFitting=1;fontFamily=Architects Daughter;fontSource=https%3A%2F%2Ffonts.googleapis.com%2Fcss%3Ffamily%3DArchitects%2BDaughter;fontSize=8;fontStyle=1" vertex="1" parent="XLNwENEWXN-acG2qOnhf-38">
          <mxGeometry x="-5.5" y="10.25" width="42" height="11.75" as="geometry" />
        </mxCell>
        <mxCell id="XLNwENEWXN-acG2qOnhf-46" value="" style="rounded=0;whiteSpace=wrap;html=1;sketch=1;hachureGap=4;jiggle=2;curveFitting=1;fontFamily=Architects Daughter;fontSource=https%3A%2F%2Ffonts.googleapis.com%2Fcss%3Ffamily%3DArchitects%2BDaughter;fontSize=20;" vertex="1" parent="1">
          <mxGeometry x="391" y="616" width="32" height="33" as="geometry" />
        </mxCell>
        <mxCell id="XLNwENEWXN-acG2qOnhf-47" value="" style="endArrow=none;html=1;rounded=0;sketch=1;hachureGap=4;jiggle=2;curveFitting=1;fontFamily=Architects Daughter;fontSource=https%3A%2F%2Ffonts.googleapis.com%2Fcss%3Ffamily%3DArchitects%2BDaughter;fontSize=16;entryX=1;entryY=0;entryDx=0;entryDy=0;exitX=0;exitY=1;exitDx=0;exitDy=0;" edge="1" parent="1" source="XLNwENEWXN-acG2qOnhf-46" target="XLNwENEWXN-acG2qOnhf-46">
          <mxGeometry width="50" height="50" relative="1" as="geometry">
            <mxPoint x="393" y="649" as="sourcePoint" />
            <mxPoint x="415" y="629" as="targetPoint" />
          </mxGeometry>
        </mxCell>
        <mxCell id="XLNwENEWXN-acG2qOnhf-48" value="" style="endArrow=none;html=1;rounded=0;sketch=1;hachureGap=4;jiggle=2;curveFitting=1;fontFamily=Architects Daughter;fontSource=https%3A%2F%2Ffonts.googleapis.com%2Fcss%3Ffamily%3DArchitects%2BDaughter;fontSize=16;entryX=1;entryY=1;entryDx=0;entryDy=0;exitX=0;exitY=0;exitDx=0;exitDy=0;" edge="1" parent="1" source="XLNwENEWXN-acG2qOnhf-46" target="XLNwENEWXN-acG2qOnhf-46">
          <mxGeometry width="50" height="50" relative="1" as="geometry">
            <mxPoint x="401" y="659" as="sourcePoint" />
            <mxPoint x="433" y="626" as="targetPoint" />
          </mxGeometry>
        </mxCell>
        <mxCell id="XLNwENEWXN-acG2qOnhf-49" value="IT Class" style="rounded=0;whiteSpace=wrap;html=1;sketch=1;hachureGap=4;jiggle=2;curveFitting=1;fontFamily=Architects Daughter;fontSource=https%3A%2F%2Ffonts.googleapis.com%2Fcss%3Ffamily%3DArchitects%2BDaughter;fontSize=8;fontStyle=1" vertex="1" parent="1">
          <mxGeometry x="385.5" y="626.25" width="42" height="11.75" as="geometry" />
        </mxCell>
        <mxCell id="XLNwENEWXN-acG2qOnhf-50" value="" style="rounded=0;whiteSpace=wrap;html=1;sketch=1;hachureGap=4;jiggle=2;curveFitting=1;fontFamily=Architects Daughter;fontSource=https%3A%2F%2Ffonts.googleapis.com%2Fcss%3Ffamily%3DArchitects%2BDaughter;fontSize=20;" vertex="1" parent="1">
          <mxGeometry x="443" y="616" width="32" height="33" as="geometry" />
        </mxCell>
        <mxCell id="XLNwENEWXN-acG2qOnhf-51" value="" style="endArrow=none;html=1;rounded=0;sketch=1;hachureGap=4;jiggle=2;curveFitting=1;fontFamily=Architects Daughter;fontSource=https%3A%2F%2Ffonts.googleapis.com%2Fcss%3Ffamily%3DArchitects%2BDaughter;fontSize=16;entryX=1;entryY=0;entryDx=0;entryDy=0;exitX=0;exitY=1;exitDx=0;exitDy=0;" edge="1" parent="1" source="XLNwENEWXN-acG2qOnhf-50" target="XLNwENEWXN-acG2qOnhf-50">
          <mxGeometry width="50" height="50" relative="1" as="geometry">
            <mxPoint x="445" y="649" as="sourcePoint" />
            <mxPoint x="467" y="629" as="targetPoint" />
          </mxGeometry>
        </mxCell>
        <mxCell id="XLNwENEWXN-acG2qOnhf-52" value="" style="endArrow=none;html=1;rounded=0;sketch=1;hachureGap=4;jiggle=2;curveFitting=1;fontFamily=Architects Daughter;fontSource=https%3A%2F%2Ffonts.googleapis.com%2Fcss%3Ffamily%3DArchitects%2BDaughter;fontSize=16;entryX=1;entryY=1;entryDx=0;entryDy=0;exitX=0;exitY=0;exitDx=0;exitDy=0;" edge="1" parent="1" source="XLNwENEWXN-acG2qOnhf-50" target="XLNwENEWXN-acG2qOnhf-50">
          <mxGeometry width="50" height="50" relative="1" as="geometry">
            <mxPoint x="453" y="659" as="sourcePoint" />
            <mxPoint x="485" y="626" as="targetPoint" />
          </mxGeometry>
        </mxCell>
        <mxCell id="XLNwENEWXN-acG2qOnhf-53" value="&lt;font style=&quot;font-size: 8px;&quot;&gt;Games&lt;/font&gt;" style="rounded=0;whiteSpace=wrap;html=1;sketch=1;hachureGap=4;jiggle=2;curveFitting=1;fontFamily=Architects Daughter;fontSource=https%3A%2F%2Ffonts.googleapis.com%2Fcss%3Ffamily%3DArchitects%2BDaughter;fontSize=8;fontStyle=1" vertex="1" parent="1">
          <mxGeometry x="437.5" y="626.25" width="42" height="11.75" as="geometry" />
        </mxCell>
        <mxCell id="XLNwENEWXN-acG2qOnhf-58" value="" style="shape=image;html=1;verticalAlign=top;verticalLabelPosition=bottom;labelBackgroundColor=#ffffff;imageAspect=0;aspect=fixed;image=https://cdn4.iconfinder.com/data/icons/evil-icons-user-interface/64/arrow_left2-128.png;sketch=1;hachureGap=4;jiggle=2;curveFitting=1;fontFamily=Architects Daughter;fontSource=https%3A%2F%2Ffonts.googleapis.com%2Fcss%3Ffamily%3DArchitects%2BDaughter;fontSize=20;" vertex="1" parent="1">
          <mxGeometry x="380.5" y="500.5" width="13" height="13" as="geometry" />
        </mxCell>
        <mxCell id="XLNwENEWXN-acG2qOnhf-59" value="activities" style="text;html=1;strokeColor=none;fillColor=none;align=center;verticalAlign=middle;whiteSpace=wrap;rounded=0;fontSize=7;fontFamily=Architects Daughter;fontStyle=1" vertex="1" parent="1">
          <mxGeometry x="392.5" y="502" width="30" height="8" as="geometry" />
        </mxCell>
      </root>
    </mxGraphModel>
  </diagram>
</mxfile>
